<svg version="1.1" id="logo" xmlns="http://www.w3.org/2000/svg" xmlns:xlink="http://www.w3.org/1999/xlink" x="0px" y="0px"
	 width="70px" height="60px" viewBox="0 0 70 60" enable-background="new 0 0 70 60" xml:space="preserve">
<path id="middle" fill="#EC6807" d="M61.708,35.77V23.686c0-3.431-2.771-4.933-2.771-4.933s0.904,0.511,0.904,1.459
	c0,0.949-0.97,1.51-0.97,1.51l-14.733,8.061v0.189l14.639,7.959c1.117,0.625,1.065,1.512,1.065,1.512
	c0,0.914-1.065,1.662-1.065,1.662C62.001,39.021,61.708,35.77,61.708,35.77"/>
<path id="top" fill="#FAB50D" d="M44.141,29.88L12.12,12.41c0,0-4.56-2.35-4.8-5.39h23.61c0,0,3.53-0.11,5.958,0.46c0,0,2.312,0.43,4,1.35
	l17.69,9.67c0,0,1.39,0.68,1.39,1.81c0.002,0,0.131,0.88-1.389,1.71c-1.47,0.812-13.576,7.391-14.396,7.836"/>
<path id="bottom" fill="#010202" d="M44.137,29.88c0,0,12.916,7.021,14.439,7.854c1.523,0.83,1.385,1.711,1.385,1.711
	c0,1.123-1.385,1.812-1.385,1.812l-17.689,9.661c-1.686,0.92-3.996,1.354-3.996,1.354c-2.432,0.565-5.967,0.453-5.967,0.453H7.321
	c0.241-3.039,4.794-5.385,4.794-5.385L44.137,29.88z"/>

<circle fill="#bbb" cx="0" cy="0" r="5">
	<animateMotion  fill="remove" id="animate1" restart="always" dur="1.6s" begin="0s; animate2.end" repeatCount="freeze">
		<mpath  xlink:href="#top"></mpath>
	</animateMotion>
	<animateMotion  fill="remove" id="animate2" restart="always" dur="1.6s" begin="animate1.end" repeatCount="freeze" keyPoints="1;0" keyTimes="0;1" calcMode="linear">
		<mpath  xlink:href="#bottom"></mpath>
	</animateMotion>
</circle>

</svg>
